<svg width="168" height="31" viewBox="0 0 168 31" fill="none" xmlns="http://www.w3.org/2000/svg">
<g clip-path="url(#clip0_17_303)">
<path d="M8.83569 16.5841C7.60129 16.5841 7.05989 16.3034 7.01658 15.0945C6.5618 16.0012 5.45734 16.6704 3.72485 16.6704C1.40765 16.6704 0 15.4615 0 13.4323C0 11.2951 1.75414 10.1509 3.85479 10.1509C5.00256 10.1509 5.82549 10.3668 6.41021 10.7985L6.34524 10.1509C6.15033 7.99207 5.65224 6.7184 4.22294 6.7184C2.29555 6.7184 3.16179 9.35212 1.34268 9.35212C0.649683 9.35212 0.151593 8.94195 0.151593 8.25114C0.151593 6.86951 1.92739 5.87646 4.2446 5.87646C6.99492 5.87646 8.77072 6.95586 9.03059 9.65435L9.48537 14.3821C9.61531 15.8069 10.6765 15.2888 10.6765 16.0228C10.6981 16.4546 9.78856 16.5841 8.83569 16.5841ZM2.79364 13.1084C2.79364 14.4037 3.42166 15.4183 4.82931 15.4183C5.80383 15.4183 6.67008 14.7707 6.69173 13.7777L6.60511 12.8278C6.45352 11.7484 5.69555 11.1439 4.65606 11.1439C3.44332 11.1439 2.79364 11.9211 2.79364 13.1084Z" fill="black"/>
<path d="M15.7508 16.6704C12.6323 16.6704 10.6616 14.4253 10.6616 11.403C10.6616 8.12161 13.0005 5.87646 15.8591 5.87646C18.3712 5.87646 20.082 7.25809 20.082 8.57496C20.082 9.28736 19.5623 9.78387 18.7394 9.76228C16.8769 9.7191 17.5699 6.76156 15.4693 6.78315C14.1699 6.78315 13.347 7.84097 13.347 10.043C13.347 12.9573 14.798 14.7923 16.812 14.7923C18.198 14.7923 18.9992 14.1231 19.5406 13.0653C19.8005 12.5903 20.3203 12.8062 20.2553 13.2596C20.0387 14.965 18.4578 16.6704 15.7508 16.6704Z" fill="black"/>
<path d="M25.4302 16.6707C23.1563 16.6707 21.5104 15.5482 21.5104 12.8281V8.31622C21.5104 7.40953 20.6875 7.25841 20.6875 6.80507V6.7403C20.6875 6.54601 20.8391 6.3949 21.0773 6.35172L23.5028 5.91997C23.9359 5.83361 24.2174 5.89838 24.2174 6.28696V12.4611C24.2174 14.3608 24.9104 15.1596 26.2315 15.1596C27.4659 15.1596 28.462 14.2313 28.462 12.7417V8.31622C28.462 7.40953 27.6174 7.25841 27.6174 6.80507V6.7403C27.6174 6.5676 27.7474 6.3949 28.0073 6.35172L30.4544 5.91997C30.9308 5.8552 31.1907 5.91996 31.1907 6.26537V14.3393C31.1907 16.0015 32.2735 15.2459 32.2735 15.9799C32.2735 16.4333 31.6671 16.5844 30.5627 16.5844C29.22 16.5844 28.7869 16.1958 28.7436 14.7926C28.0939 15.9799 26.9028 16.6707 25.4302 16.6707Z" fill="black"/>
<path d="M33.5096 16.4547C33.2281 16.4547 33.0332 16.3251 33.0332 16.1093V16.0229C33.0332 15.5264 33.8561 15.4184 33.8561 14.5549V9.13637C33.8561 8.22968 33.0332 7.99221 33.0332 7.58204V7.51728C33.0332 7.36616 33.1414 7.25822 33.4446 7.10711L35.7618 5.96295C36.2816 5.72548 36.5631 5.98454 36.5631 6.35153V14.5549C36.5631 15.4184 37.386 15.5264 37.386 16.0229V16.1093C37.386 16.3251 37.1911 16.4547 36.9096 16.4547H33.5096ZM33.423 2.72477C33.423 1.75331 34.1593 1.0625 35.1988 1.0625C36.2383 1.0625 36.9746 1.75331 36.9746 2.72477C36.9746 3.71781 36.2383 4.38704 35.1988 4.38704C34.1593 4.38704 33.423 3.71781 33.423 2.72477Z" fill="black"/>
<path d="M42.3989 16.6706C40.5581 16.6706 39.3887 15.5265 39.3887 13.3677V7.21518H38.111C37.8728 7.21518 37.7212 7.04248 37.7212 6.8266V6.50278C37.7212 6.24372 37.8511 6.09261 38.111 6.09261H38.5224C40.125 6.09261 40.6881 5.20751 40.883 3.95541C40.9263 3.65318 41.0995 3.48047 41.3377 3.48047H41.6409C41.9441 3.48047 42.0957 3.65318 42.0957 3.95541V6.09261H44.8027C45.0193 6.09261 45.1925 6.26531 45.1925 6.50278V6.8266C45.1925 7.04248 45.0193 7.21518 44.8027 7.21518H42.0957V13.4325C42.0957 14.4255 42.6154 14.9652 43.3951 14.9652C44.3696 14.9652 44.6078 14.2312 44.8027 13.5836C44.846 13.3677 45.0193 13.2813 45.1709 13.2813C45.3658 13.2813 45.5607 13.4109 45.5607 13.6268C45.5607 15.0947 44.4346 16.6706 42.3989 16.6706Z" fill="black"/>
<path d="M48.1374 21.0959C46.6648 21.0959 45.582 20.2539 45.582 19.1314C45.582 18.419 46.0151 17.9656 46.7081 17.9656C48.1158 17.9656 47.726 19.8222 48.8304 19.8222C49.6534 19.8222 50.2164 19.1098 51.1693 16.8862L47.1413 8.05679C46.6648 6.99898 46.0151 7.02057 46.0151 6.54563V6.45927C46.0151 6.24339 46.1884 6.09229 46.4266 6.09229H50.0648C50.2814 6.09229 50.433 6.22182 50.433 6.43769V6.50245C50.433 7.02056 49.6534 7.04215 50.0865 8.14313L52.4903 14.0582L54.8075 8.33742C55.284 7.19326 54.1362 7.1285 54.1362 6.50245V6.43769C54.1362 6.22182 54.2878 6.09229 54.5476 6.09229H56.9948C57.233 6.09229 57.4063 6.22181 57.4063 6.4161V6.50245C57.4063 7.02056 56.6699 7.21486 56.3018 8.05679L52.0139 17.9224C51.0394 20.1892 49.9566 21.0959 48.1374 21.0959Z" fill="black"/>
<path d="M72.3223 16.6498C69.507 16.6498 67.8828 15.5488 67.8828 14.2752C67.8828 13.5628 68.3592 13.131 69.0089 13.131C70.6764 13.131 70.0917 15.6784 72.7338 15.6784C73.9032 15.6784 74.7045 15.225 74.7045 14.3183C74.7045 11.5767 68.1427 13.2389 68.1427 9.22356C68.1427 7.1943 69.9835 5.87744 72.5605 5.87744C75.2242 5.87744 76.7618 6.93525 76.7618 8.31687C76.7618 8.89974 76.2854 9.35309 75.7007 9.35309C73.9032 9.35309 74.5312 6.87048 72.214 6.87048C71.2179 6.87048 70.4382 7.28065 70.4382 8.23052C70.4382 10.8427 77.0217 9.28833 77.0217 13.4116C77.0217 15.333 75.1376 16.6498 72.3223 16.6498Z" fill="black"/>
<path d="M83.2249 16.6714C80.1064 16.6714 78.1357 14.4263 78.1357 11.404C78.1357 8.12258 80.4746 5.87744 83.3332 5.87744C85.8453 5.87744 87.5561 7.25906 87.5561 8.57593C87.5561 9.28833 87.0363 9.78485 86.2134 9.76326C84.351 9.72008 85.044 6.76254 82.9433 6.78413C81.644 6.78413 80.821 7.84194 80.821 10.0439C80.821 12.9583 82.272 14.7933 84.286 14.7933C85.672 14.7933 86.4733 14.124 87.0147 13.0662C87.2746 12.5913 87.7943 12.8072 87.7293 13.2605C87.5128 14.966 85.9319 16.6714 83.2249 16.6714Z" fill="black"/>
<path d="M96.1741 16.4773C95.8709 16.4773 95.6977 16.3478 95.6977 16.1319V16.0456C95.6977 15.549 96.4989 15.4411 96.434 14.556L96.1308 10.3248C96.0225 8.51141 95.3079 7.36725 94.0518 7.36725C92.7741 7.36725 91.9079 8.40347 91.9079 9.97939V14.5776C91.9079 15.4411 92.8174 15.5275 92.8174 16.0456V16.1103C92.8174 16.3262 92.6226 16.4557 92.3194 16.4557H88.7677C88.4862 16.4557 88.313 16.3262 88.313 16.1103V16.0456C88.313 15.5275 89.2008 15.4411 89.2008 14.5776V3.35191C89.2008 2.42363 88.248 2.35886 88.248 1.90552V1.84075C88.248 1.62488 88.3996 1.47376 88.6378 1.36582L91.1283 0.329602C91.5831 0.135311 91.8645 0.286427 91.8645 0.696597L91.8429 7.51837C92.4926 6.50374 93.6187 5.87769 94.9614 5.87769C97.1053 5.87769 98.6212 7.12979 98.8811 10.5191L99.1628 14.556C99.2277 15.4411 100.007 15.549 100.007 16.0456V16.1319C100.007 16.3478 99.8123 16.4773 99.5091 16.4773H96.1741Z" fill="black"/>
<path d="M105.225 16.6714C102.431 16.6714 100.265 14.858 100.265 11.5551C100.265 8.46799 102.496 5.87744 105.398 5.87744C108.17 5.87744 109.448 7.64765 109.448 8.83498C109.448 9.56897 109.123 10.1303 108.04 10.4541L103.059 11.9221C103.492 13.5843 104.618 14.7933 106.264 14.7933C107.758 14.7933 108.56 14.0593 109.058 13.2389C109.253 12.9151 109.816 13.0446 109.772 13.4764C109.621 14.7933 107.997 16.6714 105.225 16.6714ZM102.843 10.2166C102.843 10.4109 102.843 10.6052 102.864 10.7995L105.723 9.91437C106.546 9.65532 106.784 9.37468 106.784 8.89974C106.784 7.77717 106.134 6.74095 105.051 6.74095C103.687 6.74095 102.843 8.16576 102.843 10.2166Z" fill="black"/>
<path d="M115.064 16.6715C112.53 16.6715 110.343 14.6423 110.343 11.4041C110.343 8.03636 112.682 5.87757 115.346 5.87757C116.58 5.87757 117.576 6.26615 118.291 6.97855V3.09273C118.291 2.12128 117.273 2.0781 117.273 1.58158V1.5384C117.273 1.3657 117.403 1.17141 117.663 1.08506L120.132 0.307895C120.673 0.135192 120.933 0.264718 120.933 0.718064V14.5775C120.933 15.441 121.756 15.5921 121.756 16.0671V16.1318C121.756 16.3477 121.626 16.4556 121.366 16.4556H118.984C118.702 16.4556 118.551 16.2829 118.529 16.0239L118.443 14.7718C117.836 15.9375 116.58 16.6715 115.064 16.6715ZM113.072 10.5837C113.072 13.1311 114.133 15.0956 116.06 15.0956C117.251 15.0956 118.291 14.1889 118.291 12.6778V10.0009C118.291 8.16589 117.035 7.00014 115.671 7.00014C113.916 7.00014 113.072 8.46812 113.072 10.5837Z" fill="black"/>
<path d="M126.931 16.6717C124.657 16.6717 123.012 15.5491 123.012 12.8291V8.3172C123.012 7.41051 122.189 7.25939 122.189 6.80605V6.74128C122.189 6.54699 122.34 6.39588 122.579 6.3527L125.004 5.92094C125.437 5.83459 125.719 5.89936 125.719 6.28794V12.4621C125.719 14.3618 126.412 15.1606 127.733 15.1606C128.967 15.1606 129.963 14.2323 129.963 12.7427V8.3172C129.963 7.41051 129.119 7.25939 129.119 6.80605V6.74128C129.119 6.56858 129.249 6.39588 129.508 6.3527L131.956 5.92094C132.432 5.85618 132.692 5.92094 132.692 6.26635V14.3402C132.692 16.0025 133.775 15.2469 133.775 15.9809C133.775 16.4342 133.168 16.5854 132.064 16.5854C130.721 16.5854 130.288 16.1968 130.245 14.7936C129.595 15.9809 128.404 16.6717 126.931 16.6717Z" fill="black"/>
<path d="M134.946 16.4556C134.664 16.4556 134.491 16.3261 134.491 16.1102V16.0455C134.491 15.5274 135.292 15.441 135.292 14.5775V3.45977C135.292 2.53149 134.491 2.35878 134.491 1.94861V1.88385C134.491 1.64638 134.686 1.56003 134.881 1.47368L137.22 0.351114C137.739 0.0920599 138.021 0.372702 138.021 0.696521V14.5775C138.021 15.441 138.931 15.5274 138.931 16.0455V16.1102C138.931 16.3261 138.736 16.4556 138.432 16.4556H134.946Z" fill="black"/>
<path d="M140.417 16.4556C140.136 16.4556 139.941 16.3261 139.941 16.1102V16.0239C139.941 15.5274 140.764 15.4194 140.764 14.5559V9.13735C140.764 8.23066 139.941 7.99319 139.941 7.58302V7.51826C139.941 7.36714 140.049 7.2592 140.352 7.10809L142.669 5.96393C143.189 5.72646 143.471 5.98552 143.471 6.35251V14.5559C143.471 15.4194 144.294 15.5274 144.294 16.0239V16.1102C144.294 16.3261 144.099 16.4556 143.817 16.4556H140.417ZM140.331 2.72575C140.331 1.75429 141.067 1.06348 142.106 1.06348C143.146 1.06348 143.882 1.75429 143.882 2.72575C143.882 3.71879 143.146 4.38802 142.106 4.38802C141.067 4.38802 140.331 3.71879 140.331 2.72575Z" fill="black"/>
<path d="M153.097 16.4555C152.793 16.4555 152.62 16.326 152.62 16.1101V16.0238C152.62 15.5273 153.421 15.4193 153.356 14.5342L153.075 10.2166C152.923 8.20893 152.23 7.45336 150.974 7.45336C149.697 7.45336 148.83 8.42481 148.83 9.95755V14.5558C148.83 15.4193 149.74 15.5273 149.74 16.0238V16.1101C149.74 16.326 149.567 16.4555 149.263 16.4555H145.712C145.409 16.4555 145.235 16.326 145.235 16.1101V16.0238C145.235 15.5273 146.123 15.4193 146.123 14.5558V9.02927C146.123 8.05782 145.084 8.01464 145.084 7.51812V7.45336C145.084 7.28065 145.214 7.17271 145.495 7.04319L147.769 5.96379C148.246 5.74791 148.462 5.98538 148.462 6.37396V8.12258C149.025 6.74096 150.325 5.87744 151.884 5.87744C154.028 5.87744 155.565 7.12954 155.782 10.2814L156.107 14.5342C156.172 15.4193 156.93 15.5273 156.93 16.0238V16.1101C156.93 16.326 156.735 16.4555 156.453 16.4555H153.097Z" fill="black"/>
<path d="M162.336 14.599C159.348 14.599 157.42 12.8072 157.42 10.303C157.42 7.734 159.456 5.87744 162.445 5.87744C163.852 5.87744 164.394 6.09332 166.797 6.09332C167.75 6.09332 167.815 6.37396 167.815 6.71937C167.815 7.53971 166.841 7.34542 166.083 7.51812C166.949 8.18734 167.469 9.24515 167.469 10.2598C167.469 12.0084 166.494 13.3037 164.957 13.9082C166.711 14.2104 167.837 15.0523 167.837 16.5203C167.837 18.42 165.606 19.7153 162.488 19.7153C159.153 19.7153 157.334 18.2042 157.334 16.6282C157.334 16.0885 157.68 15.5488 158.438 15.5488C160.192 15.5488 159.586 18.6575 162.618 18.6575C164.35 18.6575 165.087 17.8587 165.087 16.7794C165.087 15.4409 164.004 14.599 162.336 14.599ZM160.084 9.5042C160.084 11.5335 160.929 13.6059 162.769 13.6059C164.025 13.6059 164.783 12.5265 164.783 10.9938C164.783 8.96451 163.96 6.89207 162.098 6.89207C160.842 6.89207 160.084 7.94988 160.084 9.5042Z" fill="black"/>
<path d="M62.2938 9.81019C63.3233 9.81019 64.1579 8.97824 64.1579 7.95197C64.1579 6.9257 63.3233 6.09375 62.2938 6.09375C61.2643 6.09375 60.4297 6.9257 60.4297 7.95197C60.4297 8.97824 61.2643 9.81019 62.2938 9.81019Z" fill="black"/>
<path d="M62.2938 16.4586C63.3233 16.4586 64.1579 15.6267 64.1579 14.6004C64.1579 13.5741 63.3233 12.7422 62.2938 12.7422C61.2643 12.7422 60.4297 13.5741 60.4297 14.6004C60.4297 15.6267 61.2643 16.4586 62.2938 16.4586Z" fill="black"/>
<path d="M0.830512 29.8323H0V25.0234H3.01395V25.7601H0.830512V27.026H2.85321V27.756H0.830512V29.8323Z" fill="black"/>
<path d="M7.42416 29.5979V29.8323H6.61375L5.14696 27.9435H4.60444V29.8323H3.77393V25.0234H5.33449C5.82342 25.0234 6.27886 25.0635 6.63384 25.3047C7.00891 25.5525 7.20314 25.9409 7.20314 26.4366C7.20314 27.3073 6.64723 27.7225 6.03775 27.8632L7.42416 29.5979ZM4.60444 25.74V27.2269H5.33449C5.97077 27.2269 6.37263 27.0059 6.37263 26.4701C6.37263 25.9208 5.97077 25.74 5.33449 25.74H4.60444Z" fill="black"/>
<path d="M10.2336 24.9297C11.687 24.9297 12.6514 25.9678 12.6514 27.4346C12.6514 28.888 11.7205 29.9262 10.2403 29.9262C8.76677 29.9262 7.8291 28.888 7.8291 27.4346C7.8291 25.9745 8.78017 24.9297 10.2336 24.9297ZM10.2269 25.6463C9.2691 25.6463 8.6931 26.4032 8.6931 27.4212C8.6931 28.446 9.2758 29.2095 10.2336 29.2095C11.1914 29.2095 11.7741 28.4527 11.7741 27.4279C11.7741 26.3898 11.1914 25.6463 10.2269 25.6463Z" fill="black"/>
<path d="M14.2841 27.3274V29.8323H13.4736V25.0234H14.7864L15.6504 27.5886C15.7642 27.9234 15.925 28.4526 16.0522 28.8544H16.0656C16.2063 28.4526 16.3938 27.8632 16.501 27.5417L17.365 25.0234H18.6442V29.8323H17.8204V27.3943C17.8204 26.8853 17.8405 26.1419 17.8405 25.7534H17.8204C17.7468 25.9945 17.5257 26.671 17.3047 27.3408L16.4608 29.8323H15.6303L14.6189 26.8384C14.4649 26.3763 14.3845 26.0414 14.2908 25.7199H14.2707C14.2774 26.1084 14.2841 26.6643 14.2841 27.3274Z" fill="black"/>
<path d="M20.9746 28.5397L21.7917 28.4661C21.8855 28.9416 22.2673 29.2363 22.85 29.2363C23.426 29.2363 23.7608 28.9416 23.7608 28.5062C23.7608 28.0709 23.4193 27.957 22.8634 27.803L22.5017 27.7025C21.6444 27.4614 21.122 27.0729 21.122 26.3094C21.122 25.5057 21.7783 24.9297 22.8299 24.9297C23.8144 24.9297 24.4172 25.4387 24.5177 26.2223L23.714 26.2893C23.6135 25.8875 23.3255 25.653 22.8031 25.653C22.3141 25.653 22.0194 25.9075 22.0194 26.2625C22.0194 26.6644 22.3543 26.7916 22.9035 26.9658L23.2451 27.0729C24.1091 27.3409 24.6382 27.6088 24.6382 28.446C24.6382 29.3435 23.8881 29.9395 22.8232 29.9395C21.8319 29.9395 21.1287 29.4774 20.9746 28.5397Z" fill="black"/>
<path d="M27.5665 24.9297C29.0199 24.9297 29.9844 25.9678 29.9844 27.4346C29.9844 28.1848 29.7232 28.8143 29.2744 29.2564L29.9174 30.0132V30.2476H29.1003L28.6516 29.6984C28.3368 29.8391 27.9818 29.9262 27.5732 29.9262C26.0997 29.9262 25.1621 28.888 25.1621 27.4346C25.1621 25.9745 26.1131 24.9297 27.5665 24.9297ZM27.5598 25.6463C26.6021 25.6463 26.0261 26.4032 26.0261 27.4212C26.0261 28.446 26.6088 29.2162 27.5665 29.2162C28.5243 29.2162 29.107 28.4862 29.107 27.4279C29.107 26.3898 28.5243 25.6463 27.5598 25.6463Z" fill="black"/>
<path d="M32.7149 29.2496C33.3981 29.2496 33.8067 28.8276 33.8067 27.9569V25.0234H34.6506V27.977C34.6506 29.3701 33.9205 29.9394 32.7149 29.9394C31.5094 29.9394 30.7793 29.3701 30.7793 27.977V25.0234H31.6232V27.9569C31.6232 28.8276 32.0318 29.2496 32.7149 29.2496Z" fill="black"/>
<path d="M35.1787 29.8323V29.5979L36.8866 25.0234H38.1525L39.8403 29.5979V29.8323H39.0098L38.5275 28.4593H36.4446L35.9623 29.8323H35.1787ZM36.9737 26.9791L36.6991 27.7426H38.2864L38.0252 26.9791C37.8176 26.383 37.7037 26.0414 37.6099 25.7534H37.4023C37.2952 26.0548 37.2014 26.3361 36.9737 26.9791Z" fill="black"/>
<path d="M44.1634 29.5979V29.8323H43.353L41.8862 27.9435H41.3437V29.8323H40.5132V25.0234H42.0737C42.5627 25.0234 43.0181 25.0635 43.3731 25.3047C43.7482 25.5525 43.9424 25.9409 43.9424 26.4366C43.9424 27.3073 43.3865 27.7225 42.777 27.8632L44.1634 29.5979ZM41.3437 25.74V27.2269H42.0737C42.71 27.2269 43.1119 27.0059 43.1119 26.4701C43.1119 25.9208 42.71 25.74 42.0737 25.74H41.3437Z" fill="black"/>
<path d="M44.915 29.8323V25.0234H48.0294V25.7601H45.7388V27.0126H47.8686V27.7426H45.7388V29.0955H48.0763V29.8323H44.915Z" fill="black"/>
<path d="M48.6157 28.5397L49.4328 28.4661C49.5266 28.9416 49.9083 29.2363 50.491 29.2363C51.067 29.2363 51.4019 28.9416 51.4019 28.5062C51.4019 28.0709 51.0603 27.957 50.5044 27.803L50.1428 27.7025C49.2855 27.4614 48.763 27.0729 48.763 26.3094C48.763 25.5057 49.4194 24.9297 50.471 24.9297C51.4555 24.9297 52.0583 25.4387 52.1588 26.2223L51.355 26.2893C51.2546 25.8875 50.9666 25.653 50.4442 25.653C49.9552 25.653 49.6605 25.9075 49.6605 26.2625C49.6605 26.6644 49.9954 26.7916 50.5446 26.9658L50.8862 27.0729C51.7502 27.3409 52.2793 27.6088 52.2793 28.446C52.2793 29.3435 51.5292 29.9395 50.4643 29.9395C49.473 29.9395 48.7697 29.4774 48.6157 28.5397Z" fill="black"/>
<path d="M53.9148 29.8323H53.0776V25.0234H54.8323C56.1317 25.0234 56.5737 25.673 56.5737 26.5102C56.5737 27.5149 55.8839 27.9837 54.7654 27.9837H53.9148V29.8323ZM53.9148 25.74V27.2671H54.7185C55.3012 27.2671 55.7365 27.0862 55.7365 26.5102C55.7365 25.9141 55.3079 25.74 54.7319 25.74H53.9148Z" fill="black"/>
<path d="M56.5405 29.8323V29.5979L58.2484 25.0234H59.5143L61.2021 29.5979V29.8323H60.3716L59.8893 28.4593H57.8064L57.3241 29.8323H56.5405ZM58.3355 26.9791L58.0609 27.7426H59.6482L59.387 26.9791C59.1794 26.383 59.0655 26.0414 58.9718 25.7534H58.7641C58.657 26.0548 58.5632 26.3361 58.3355 26.9791Z" fill="black"/>
<path d="M65.1459 28.4259L65.9831 28.5665C65.6884 29.3234 64.9986 29.9262 63.8667 29.9262C62.4334 29.9262 61.5024 28.8679 61.5024 27.4346C61.5024 26.0013 62.4334 24.9297 63.8801 24.9297C64.9316 24.9297 65.6616 25.4588 65.9563 26.2692L65.1057 26.4367C64.878 25.9477 64.4494 25.6463 63.8667 25.6463C62.9156 25.6463 62.3731 26.43 62.3731 27.4346C62.3731 28.446 62.9424 29.2095 63.9001 29.2095C64.523 29.2095 64.9249 28.8612 65.1459 28.4259Z" fill="black"/>
<path d="M66.689 29.8323V25.0234H69.8035V25.7601H67.5129V27.0126H69.6427V27.7426H67.5129V29.0955H69.8504V29.8323H66.689Z" fill="black"/>
</g>
<defs>
<clipPath id="clip0_17_303">
<rect width="168" height="31" fill="white"/>
</clipPath>
</defs>
</svg>
